<svg width="55" height="55" viewBox="0 0 55 55" fill="none" xmlns="http://www.w3.org/2000/svg">
<path fill-rule="evenodd" clip-rule="evenodd" d="M27.5458 34.2306C26.8766 34.2306 26.1937 34.3337 25.6162 34.5583C25.2725 34.6861 24.9555 34.8764 24.6812 35.1198C24.4626 35.3143 24.2871 35.5525 24.1659 35.8188C24.0447 36.0852 23.9806 36.374 23.9777 36.6667C23.9777 37.4115 24.3741 37.9317 24.6812 38.2112C24.986 38.4931 25.3343 38.665 25.6162 38.775C26.196 38.9996 26.8766 39.1004 27.5458 39.1004C28.2104 39.1004 28.8933 38.9996 29.4708 38.775C29.7572 38.665 30.1033 38.4931 30.4104 38.2112C30.6284 38.0168 30.8034 37.779 30.9242 37.513C31.0449 37.247 31.1088 36.9588 31.1116 36.6667C31.1088 36.374 31.0447 36.0852 30.9236 35.8188C30.8024 35.5523 30.6268 35.3142 30.4081 35.1198C30.1338 34.8765 29.8168 34.6861 29.4731 34.5583C28.8557 34.3337 28.2027 34.2227 27.5458 34.2306Z" fill="#FFFFFA"/>
<path d="M32.1681 28.9804C32.5439 28.3708 33.291 27.6421 34.4139 27.6421C35.5322 27.6421 36.2793 28.3708 36.6575 28.9804C37.0516 29.6175 37.2395 30.3898 37.2395 31.1529C37.2395 31.9138 37.0516 32.6883 36.6575 33.3231C36.2793 33.9327 35.5345 34.6615 34.4116 34.6615C33.291 34.6615 32.5439 33.9327 32.1658 33.3231C31.7759 32.667 31.5745 31.9161 31.5837 31.1529C31.5837 30.3898 31.7716 29.6175 32.1681 28.9804ZM20.6616 27.6444C19.5433 27.6444 18.7962 28.3708 18.4158 28.9804C18.0255 29.6372 17.8241 30.389 17.8337 31.1529C17.8337 31.9138 18.0216 32.6883 18.4181 33.3231C18.7962 33.9327 19.541 34.6615 20.6639 34.6615C21.7822 34.6615 22.5293 33.9327 22.9097 33.3231C23.3016 32.686 23.4895 31.9138 23.4895 31.1529C23.4895 30.3898 23.3016 29.6175 22.9075 28.9804C22.5293 28.3708 21.7845 27.6444 20.6616 27.6444Z" fill="#FFFFFA"/>
<path fill-rule="evenodd" clip-rule="evenodd" d="M13.9677 9.73959C12.5606 9.73959 10.9427 10.1498 9.64558 11.2658C8.30037 12.4231 7.49371 14.1808 7.49371 16.4702V20.774C7.496 21.4477 7.61058 22.7975 7.99558 23.9227C8.12162 24.2917 8.321 24.7798 8.65787 25.2221C8.0583 26.4466 7.68561 27.7697 7.55787 29.1271C7.441 30.1973 7.4387 31.3225 7.45704 32.3606C5.94454 32.8877 4.37475 33.5386 3.65287 34.0061C3.2824 34.2586 3.02525 34.6458 2.93629 35.0852C2.84732 35.5247 2.93357 35.9814 3.17665 36.3582C3.41972 36.7349 3.80038 37.0017 4.23741 37.1017C4.67445 37.2018 5.13327 37.1271 5.516 36.8936C5.78183 36.7217 6.57016 36.3596 7.606 35.9654C7.76412 37.0631 8.08266 38.0623 8.52954 38.9721C8.13173 39.2208 7.73752 39.4752 7.34704 39.7352C7.15744 39.8577 6.99383 40.0163 6.86554 40.202C6.73725 40.3878 6.64679 40.5969 6.59934 40.8176C6.55188 41.0383 6.54836 41.2661 6.58896 41.4882C6.62957 41.7102 6.71351 41.9221 6.836 42.1117C6.95848 42.3013 7.11711 42.4649 7.30283 42.5932C7.48854 42.7215 7.69771 42.8119 7.91839 42.8594C8.13906 42.9068 8.36692 42.9104 8.58896 42.8698C8.81099 42.8291 9.02286 42.7452 9.21246 42.6227L9.51266 42.4256C9.81287 42.2308 10.1589 42.004 10.5347 41.7748C11.8868 43.1544 13.5643 44.22 15.306 45.0221C19.3875 46.9013 24.2206 47.5521 27.5 47.5521C30.7793 47.5521 35.6125 46.899 39.6939 45.0221C41.4356 44.22 43.1154 43.1544 44.4652 41.7748C44.841 42.004 45.187 42.2308 45.4873 42.4256L45.7875 42.6227C46.1704 42.8701 46.6359 42.9552 47.0815 42.8594C47.5272 42.7635 47.9165 42.4946 48.1639 42.1117C48.4113 41.7288 48.4964 41.2633 48.4006 40.8176C48.3047 40.3719 48.0358 39.9826 47.6529 39.7352L47.3939 39.5656C47.1418 39.4006 46.8279 39.1944 46.4704 38.9721C46.9172 38.0646 47.2381 37.0631 47.3962 35.9654C48.432 36.3596 49.2181 36.7217 49.4862 36.8936C49.8689 37.1271 50.3278 37.2018 50.7648 37.1017C51.2018 37.0017 51.5825 36.7349 51.8256 36.3582C52.0686 35.9814 52.1549 35.5247 52.0659 35.0852C51.977 34.6458 51.7198 34.2586 51.3493 34.0061C50.6275 33.5386 49.0577 32.8877 47.5429 32.3606C47.5767 31.281 47.543 30.2003 47.442 29.1248C47.3141 27.7681 46.9414 26.4459 46.342 25.2221C46.6789 24.7798 46.8783 24.2917 47.0066 23.9227C47.3255 22.903 47.4938 21.8423 47.5062 20.774V16.4725C47.5062 14.1808 46.6995 12.4254 45.3543 11.2658C44.0595 10.1498 42.4393 9.73959 41.0322 9.73959C40.0973 9.73959 39.1302 10.0994 38.3487 10.45C37.5049 10.8467 36.6805 11.2834 35.8783 11.7586L35.3902 12.0404L35.3856 12.0427C34.7806 12.3933 34.2443 12.7073 33.7654 12.9525C33.5377 13.0722 33.3036 13.1793 33.0641 13.2733C33.0175 13.2908 32.9701 13.3061 32.922 13.3192C32.4249 13.3138 31.9287 13.274 31.437 13.2L31.0658 13.1542C29.8827 13.0121 28.6915 12.9478 27.5 12.9617C25.7308 12.9617 24.727 13.0556 23.9341 13.1542L23.5629 13.2C23.0712 13.274 22.575 13.3138 22.0779 13.3192C22.0298 13.3061 21.9824 13.2908 21.9358 13.2733C21.6961 13.18 21.4619 13.0728 21.2345 12.9525C20.6875 12.6619 20.1472 12.3585 19.6143 12.0427L19.1216 11.7586C18.3201 11.2843 17.4964 10.8484 16.6535 10.4523C15.872 10.0994 14.9027 9.73959 13.9677 9.73959ZM14.1212 40.3654C14.8866 40.9429 15.7689 41.4517 16.7429 41.9008C20.2491 43.5142 24.562 44.1146 27.5 44.1146C30.4379 44.1146 34.7485 43.5142 38.257 41.9008C39.231 41.4517 40.1133 40.9429 40.8787 40.3654C40.4543 40.2919 40.0729 40.0617 39.8101 39.7204C39.5473 39.3791 39.4223 38.9515 39.4597 38.5224C39.4972 38.0933 39.6944 37.6938 40.0124 37.4032C40.3304 37.1126 40.7459 36.952 41.1766 36.9531C41.926 36.9531 42.6937 37.1411 43.4041 37.4C43.7785 36.6142 43.9986 35.7639 44.0527 34.8952C43.596 34.7693 43.1275 34.691 42.6548 34.6615C42.1989 34.6615 41.7617 34.4804 41.4394 34.1581C41.1171 33.8357 40.936 33.3986 40.936 32.9427C40.936 32.4869 41.1171 32.0497 41.4394 31.7274C41.7617 31.4051 42.1989 31.224 42.6548 31.224C43.1016 31.224 43.6058 31.2927 44.1145 31.389C44.1145 30.7565 44.0939 30.1354 44.0252 29.4983C43.8647 28.0202 43.4454 26.7071 42.4577 25.5406C42.0595 25.0766 41.608 24.6613 41.1125 24.3031C40.7447 24.0333 40.4993 23.6284 40.4301 23.1776C40.3609 22.7267 40.4736 22.2669 40.7435 21.8992C41.0134 21.5315 41.4182 21.286 41.8691 21.2168C42.3199 21.1476 42.7797 21.2604 43.1475 21.5302C43.4225 21.7319 43.6791 21.9381 43.922 22.149C44.0229 21.6265 44.0687 21.0788 44.0687 20.7648V16.4725C44.0687 15.0379 43.5966 14.2886 43.1108 13.8715C42.5791 13.4131 41.8229 13.1771 41.0322 13.1771C40.8718 13.1771 40.4685 13.2665 39.7627 13.585C39.105 13.8829 38.3693 14.2908 37.5925 14.7377C37.4449 14.8231 37.2975 14.9087 37.1502 14.9944C36.536 15.3496 35.9012 15.7186 35.3397 16.0073C34.9845 16.1906 34.6156 16.3648 34.2604 16.4977C33.8543 16.6589 33.423 16.7473 32.9862 16.759C32.3089 16.7564 31.6326 16.7051 30.9627 16.6054L30.6487 16.5665C29.604 16.4413 28.5521 16.3854 27.5 16.3992C25.8775 16.3992 25.0135 16.484 24.3535 16.5665L24.0372 16.6054C23.4643 16.6811 22.8662 16.7567 22.0137 16.7567C21.5256 16.7567 21.0695 16.6192 20.7418 16.4977C20.3719 16.3558 20.0107 16.1921 19.6602 16.0073C19.0987 15.7186 18.4639 15.3496 17.8497 14.9944L17.4075 14.7377C16.6306 14.2908 15.895 13.8806 15.2372 13.585C14.5314 13.2642 14.1281 13.1771 13.9677 13.1771C13.1793 13.1771 12.4208 13.4131 11.8891 13.8715C11.4033 14.2886 10.9312 15.0402 10.9312 16.4725V20.7625C10.9312 21.0765 10.977 21.6242 11.0779 22.1467C11.3231 21.9358 11.582 21.7296 11.8525 21.5279C12.0345 21.3943 12.2411 21.2979 12.4605 21.2441C12.6798 21.1903 12.9076 21.1803 13.1308 21.2145C13.3541 21.2488 13.5684 21.3267 13.7615 21.4438C13.9546 21.5608 14.1228 21.7148 14.2564 21.8969C14.39 22.079 14.4865 22.2856 14.5403 22.5049C14.594 22.7243 14.6041 22.9521 14.5698 23.1753C14.5356 23.3985 14.4577 23.6128 14.3406 23.8059C14.2235 23.9991 14.0695 24.1672 13.8875 24.3008C13.3375 24.7042 12.8952 25.119 12.5422 25.5383C11.5568 26.7071 11.1352 28.0179 10.9747 29.4961C10.906 30.1331 10.8831 30.7565 10.8831 31.3867C11.3941 31.2881 11.8983 31.2217 12.3452 31.2217C12.801 31.2217 13.2382 31.4028 13.5605 31.7251C13.8828 32.0474 14.0639 32.4846 14.0639 32.9404C14.0639 33.3963 13.8828 33.8334 13.5605 34.1558C13.2382 34.4781 12.801 34.6592 12.3452 34.6592C12.1022 34.6592 11.6302 34.7279 10.9472 34.8929C11.0091 35.805 11.2337 36.6369 11.5958 37.3977C12.3069 37.1211 13.0605 36.9699 13.8233 36.9508C14.2541 36.9497 14.6696 37.1103 14.9875 37.4009C15.3055 37.6915 15.5027 38.091 15.5402 38.5201C15.5777 38.9492 15.4526 39.3768 15.1898 39.7181C14.927 40.0594 14.5457 40.2919 14.1212 40.3654Z" fill="#FFFFFA"/>
</svg>
