<svg width="35" height="35" viewBox="0 0 35 35" fill="none" xmlns="http://www.w3.org/2000/svg">
<path d="M5.83334 26.25C5.42014 26.25 5.07355 26.11 4.79355 25.83C4.51355 25.55 4.37403 25.2039 4.37501 24.7917C4.37501 24.3785 4.51501 24.0319 4.79501 23.7519C5.07501 23.4719 5.42112 23.3324 5.83334 23.3333H29.1667C29.5799 23.3333 29.9265 23.4733 30.2065 23.7533C30.4865 24.0333 30.626 24.3795 30.625 24.7917C30.625 25.2049 30.485 25.5515 30.205 25.8315C29.925 26.1115 29.5789 26.251 29.1667 26.25H5.83334ZM5.83334 18.9583C5.42014 18.9583 5.07355 18.8183 4.79355 18.5383C4.51355 18.2583 4.37403 17.9122 4.37501 17.5C4.37501 17.0868 4.51501 16.7402 4.79501 16.4602C5.07501 16.1802 5.42112 16.0407 5.83334 16.0417H29.1667C29.5799 16.0417 29.9265 16.1817 30.2065 16.4617C30.4865 16.7417 30.626 17.0878 30.625 17.5C30.625 17.9132 30.485 18.2598 30.205 18.5398C29.925 18.8198 29.5789 18.9593 29.1667 18.9583H5.83334ZM5.83334 11.6667C5.42014 11.6667 5.07355 11.5267 4.79355 11.2467C4.51355 10.9667 4.37403 10.6206 4.37501 10.2083C4.37501 9.79514 4.51501 9.44855 4.79501 9.16855C5.07501 8.88855 5.42112 8.74903 5.83334 8.75001H29.1667C29.5799 8.75001 29.9265 8.89001 30.2065 9.17001C30.4865 9.45001 30.626 9.79612 30.625 10.2083C30.625 10.6215 30.485 10.9681 30.205 11.2481C29.925 11.5281 29.5789 11.6676 29.1667 11.6667H5.83334Z" fill="#FFFFFA"/>
</svg>
